<svg width="37" height="37" viewBox="0 0 37 37" fill="none" xmlns="http://www.w3.org/2000/svg">
<path d="M26.2837 0H10.7162C9.22636 0 8.02368 1.20808 8.02368 2.69525V34.3074C8.02368 35.7933 9.22636 37 10.7162 37H26.2837C27.7709 37 28.9762 35.7933 28.9762 34.3074V2.69525C28.9762 1.20808 27.7709 0 26.2837 0ZM14.6587 1.63683H22.344C22.5381 1.63683 22.6959 1.92672 22.6959 2.28537C22.6959 2.64401 22.5381 2.93525 22.344 2.93525H14.6587C14.4632 2.93525 14.3081 2.64401 14.3081 2.28537C14.3081 1.92672 14.4632 1.63683 14.6587 1.63683ZM18.5013 34.3398C17.5535 34.3398 16.7822 33.5686 16.7822 32.6194C16.7822 31.6702 17.5535 30.9016 18.5013 30.9016C19.4465 30.9016 20.2177 31.6702 20.2177 32.6194C20.2177 33.5686 19.4465 34.3398 18.5013 34.3398ZM26.9592 28.4491H10.0421V4.54781H26.9592V28.4491Z" fill="white"/>
</svg>
