<svg width="40" height="40" viewBox="0 0 40 40" fill="none" xmlns="http://www.w3.org/2000/svg">
<path d="M27.1264 23.5318L21.5492 19.349V10.8285C21.5492 9.9718 20.8567 9.2793 20 9.2793C19.1433 9.2793 18.4508 9.9718 18.4508 10.8285V20.1237C18.4508 20.6116 18.6801 21.0718 19.0705 21.363L25.2672 26.0106C25.546 26.2198 25.8714 26.3205 26.1952 26.3205C26.6677 26.3205 27.1325 26.1082 27.4361 25.6992C27.9506 25.0159 27.8111 24.0446 27.1264 23.5318Z" fill="white"/>
<path d="M20 0C8.97133 0 0 8.97133 0 20C0 31.0287 8.97133 40 20 40C31.0287 40 40 31.0287 40 20C40 8.97133 31.0287 0 20 0ZM20 36.9016C10.6816 36.9016 3.09836 29.3184 3.09836 20C3.09836 10.6816 10.6816 3.09836 20 3.09836C29.3199 3.09836 36.9016 10.6816 36.9016 20C36.9016 29.3184 29.3184 36.9016 20 36.9016Z" fill="white"/>
</svg>
